<?xml version="1.0" encoding="UTF-8"?>
<svg width="700pt" height="700pt" version="1.1" viewBox="0 0 700 700" xmlns="http://www.w3.org/2000/svg" xmlns:xlink="http://www.w3.org/1999/xlink">
 <defs>
  <symbol id="u" overflow="visible">
   <path d="m20.25-1.2031c-1.043 0.53125-2.1328 0.93359-3.2656 1.2031-1.125 0.28125-2.3047 0.42188-3.5312 0.42188-3.6797 0-6.5898-1.0234-8.7344-3.0781-2.1484-2.0508-3.2188-4.832-3.2188-8.3438 0-3.5195 1.0703-6.3047 3.2188-8.3594 2.1445-2.0508 5.0547-3.0781 8.7344-3.0781 1.2266 0 2.4062 0.14062 3.5312 0.42188 1.1328 0.27344 2.2227 0.67969 3.2656 1.2188v4.5625c-1.0547-0.71875-2.0898-1.2422-3.1094-1.5781-1.0234-0.34375-2.1016-0.51562-3.2344-0.51562-2.0312 0-3.6328 0.65234-4.7969 1.9531-1.1562 1.3047-1.7344 3.0938-1.7344 5.375 0 2.2734 0.57812 4.0586 1.7344 5.3594 1.1641 1.3047 2.7656 1.9531 4.7969 1.9531 1.1328 0 2.2109-0.16406 3.2344-0.5 1.0195-0.33203 2.0547-0.85938 3.1094-1.5781z"/>
  </symbol>
  <symbol id="c" overflow="visible">
   <path d="m14.828-12.031c-0.46875-0.21875-0.93359-0.37891-1.3906-0.48438-0.46094-0.10156-0.91797-0.15625-1.375-0.15625-1.3555 0-2.4023 0.4375-3.1406 1.3125-0.73047 0.875-1.0938 2.1211-1.0938 3.7344v7.625h-5.2812v-16.531h5.2812v2.7188c0.67578-1.082 1.4531-1.875 2.3281-2.375 0.88281-0.5 1.9414-0.75 3.1719-0.75 0.17578 0 0.36719 0.011719 0.57812 0.03125 0.20703 0.011719 0.50781 0.042969 0.90625 0.09375z"/>
  </symbol>
  <symbol id="b" overflow="visible">
   <path d="m19.047-8.3125v1.5h-12.359c0.125 1.2422 0.57031 2.1719 1.3438 2.7969 0.76953 0.625 1.8438 0.9375 3.2188 0.9375 1.1133 0 2.2539-0.16406 3.4219-0.5 1.1641-0.33203 2.3633-0.83203 3.5938-1.5v4.0781c-1.25 0.46875-2.5 0.82422-3.75 1.0625s-2.5 0.35938-3.75 0.35938c-2.9922 0-5.3203-0.75781-6.9844-2.2812-1.6562-1.5195-2.4844-3.6484-2.4844-6.3906 0-2.6953 0.8125-4.8164 2.4375-6.3594 1.6328-1.5508 3.8789-2.3281 6.7344-2.3281 2.5938 0 4.6719 0.78906 6.2344 2.3594 1.5625 1.5625 2.3438 3.6523 2.3438 6.2656zm-5.4375-1.75c0-1.0078-0.29297-1.8203-0.875-2.4375-0.58594-0.61328-1.3516-0.92188-2.2969-0.92188-1.0234 0-1.8555 0.29297-2.5 0.875-0.63672 0.57422-1.0312 1.4023-1.1875 2.4844z"/>
  </symbol>
  <symbol id="a" overflow="visible">
   <path d="m9.9531-7.4375c-1.1055 0-1.9375 0.1875-2.5 0.5625-0.55469 0.375-0.82812 0.92969-0.82812 1.6562 0 0.66797 0.22266 1.1953 0.67188 1.5781 0.44531 0.375 1.0703 0.5625 1.875 0.5625 0.98828 0 1.8203-0.35156 2.5-1.0625 0.6875-0.71875 1.0312-1.6133 1.0312-2.6875v-0.60938zm8.0781-2v9.4375h-5.3281v-2.4531c-0.71094 1.0117-1.5117 1.7461-2.4062 2.2031-0.88672 0.44531-1.9609 0.67188-3.2188 0.67188-1.7188 0-3.1172-0.49219-4.1875-1.4844-1.0625-1-1.5938-2.2969-1.5938-3.8906 0-1.9453 0.66406-3.3672 2-4.2656 1.332-0.90625 3.4258-1.3594 6.2812-1.3594h3.125v-0.42188c0-0.83203-0.33594-1.4414-1-1.8281-0.65625-0.39453-1.6836-0.59375-3.0781-0.59375-1.1367 0-2.1953 0.11719-3.1719 0.34375-0.96875 0.23047-1.8711 0.57031-2.7031 1.0156v-4.0312c1.125-0.26953 2.2578-0.47656 3.4062-0.625 1.1445-0.14453 2.2852-0.21875 3.4219-0.21875 2.9766 0 5.1289 0.58984 6.4531 1.7656 1.332 1.1797 2 3.0898 2 5.7344z"/>
  </symbol>
  <symbol id="d" overflow="visible">
   <path d="m8.3125-21.234v4.7031h5.4531v3.7812h-5.4531v7c0 0.77344 0.14844 1.293 0.45312 1.5625 0.3125 0.27344 0.91406 0.40625 1.8125 0.40625h2.7188v3.7812h-4.5312c-2.0859 0-3.5625-0.42969-4.4375-1.2969-0.86719-0.875-1.2969-2.3594-1.2969-4.4531v-7h-2.625v-3.7812h2.625v-4.7031z"/>
  </symbol>
  <symbol id="l" overflow="visible">
   <path d="m13.781-14.109v-8.8594h5.3281v22.969h-5.3281v-2.3906c-0.71875 0.96875-1.5234 1.6836-2.4062 2.1406-0.875 0.44531-1.8867 0.67188-3.0312 0.67188-2.043 0-3.7188-0.80469-5.0312-2.4219-1.3047-1.6133-1.9531-3.6953-1.9531-6.25 0-2.5508 0.64844-4.6328 1.9531-6.25 1.3125-1.625 2.9883-2.4375 5.0312-2.4375 1.1328 0 2.1445 0.23047 3.0312 0.6875 0.88281 0.46094 1.6875 1.1719 2.4062 2.1406zm-3.4844 10.703c1.1328 0 2-0.41016 2.5938-1.2344 0.59375-0.83203 0.89062-2.0352 0.89062-3.6094 0-1.5703-0.29688-2.7695-0.89062-3.5938-0.59375-0.83203-1.4609-1.25-2.5938-1.25-1.1172 0-1.9766 0.41797-2.5781 1.25-0.59375 0.82422-0.89062 2.0234-0.89062 3.5938 0 1.5742 0.29688 2.7773 0.89062 3.6094 0.60156 0.82422 1.4609 1.2344 2.5781 1.2344z"/>
  </symbol>
  <symbol id="k" overflow="visible">
   <path d="m11.344-3.4062c1.125 0 1.9844-0.41016 2.5781-1.2344 0.60156-0.83203 0.90625-2.0352 0.90625-3.6094 0-1.5703-0.30469-2.7695-0.90625-3.5938-0.59375-0.83203-1.4531-1.25-2.5781-1.25-1.1367 0-2.0078 0.41797-2.6094 1.25-0.60547 0.83594-0.90625 2.0312-0.90625 3.5938s0.30078 2.7617 0.90625 3.5938c0.60156 0.83594 1.4727 1.25 2.6094 1.25zm-3.5156-10.703c0.72656-0.96875 1.5352-1.6797 2.4219-2.1406 0.88281-0.45703 1.8984-0.6875 3.0469-0.6875 2.0391 0 3.7109 0.8125 5.0156 2.4375 1.3125 1.6172 1.9688 3.6992 1.9688 6.25 0 2.5547-0.65625 4.6367-1.9688 6.25-1.3047 1.6172-2.9766 2.4219-5.0156 2.4219-1.1484 0-2.1641-0.22656-3.0469-0.67188-0.88672-0.45703-1.6953-1.1719-2.4219-2.1406v2.3906h-5.2812v-22.969h5.2812z"/>
  </symbol>
  <symbol id="f" overflow="visible">
   <path d="m0.375-16.531h5.2812l4.4375 11.219 3.7812-11.219h5.2812l-6.9531 18.094c-0.69922 1.8438-1.5117 3.1289-2.4375 3.8594-0.92969 0.73828-2.1562 1.1094-3.6875 1.1094h-3.0469v-3.4688h1.6562c0.88281 0 1.5312-0.14844 1.9375-0.4375 0.41406-0.28125 0.73828-0.79297 0.96875-1.5312l0.14062-0.45312z"/>
  </symbol>
  <symbol id="j" overflow="visible">
   <path d="m2.7812-22.047h7.2344l5.0156 11.797 5.0469-11.797h7.2188v22.047h-5.375v-16.125l-5.0781 11.891h-3.5938l-5.0938-11.891v16.125h-5.375z"/>
  </symbol>
  <symbol id="t" overflow="visible">
   <path d="m2.5469-16.531h5.2812v16.531h-5.2812zm0-6.4375h5.2812v4.3125h-5.2812z"/>
  </symbol>
  <symbol id="s" overflow="visible">
   <path d="m1.7031-22.047h18.516v3.4531l-11.812 14.297h12.156v4.2969h-19.203v-3.4375l11.828-14.312h-11.484z"/>
  </symbol>
  <symbol id="i" overflow="visible">
   <path d="m17.859-13.781c0.66406-1.0312 1.457-1.8125 2.375-2.3438 0.92578-0.53906 1.9414-0.8125 3.0469-0.8125 1.8945 0 3.3359 0.58984 4.3281 1.7656 1 1.168 1.5 2.8711 1.5 5.1094v10.062h-5.3125v-8.625c0.007813-0.125 0.015625-0.25391 0.015625-0.39062 0.007812-0.14453 0.015625-0.34375 0.015625-0.59375 0-1.1758-0.17188-2.0234-0.51562-2.5469-0.34375-0.53125-0.90234-0.79688-1.6719-0.79688-1 0-1.7773 0.41797-2.3281 1.25-0.54297 0.82422-0.82422 2.0156-0.84375 3.5781v8.125h-5.3125v-8.625c0-1.832-0.16406-3.0078-0.48438-3.5312-0.3125-0.53125-0.87109-0.79688-1.6719-0.79688-1.0117 0-1.793 0.41797-2.3438 1.25-0.55469 0.83594-0.82812 2.0234-0.82812 3.5625v8.1406h-5.3125v-16.531h5.3125v2.4219c0.64453-0.9375 1.3906-1.6406 2.2344-2.1094 0.84375-0.47656 1.7695-0.71875 2.7812-0.71875 1.1445 0 2.1562 0.27734 3.0312 0.82812 0.875 0.55469 1.5352 1.3281 1.9844 2.3281z"/>
  </symbol>
  <symbol id="h" overflow="visible">
   <path d="m15.906-16.016v4.3125c-0.71875-0.48828-1.4453-0.85156-2.1719-1.0938-0.71875-0.23828-1.4688-0.35938-2.25-0.35938-1.4805 0-2.6328 0.43359-3.4531 1.2969-0.8125 0.86719-1.2188 2.0703-1.2188 3.6094 0 1.543 0.40625 2.7461 1.2188 3.6094 0.82031 0.86719 1.9727 1.2969 3.4531 1.2969 0.82031 0 1.6016-0.125 2.3438-0.375 0.75-0.25 1.4414-0.61328 2.0781-1.0938v4.3281c-0.83594 0.30469-1.6797 0.52344-2.5312 0.67188-0.84375 0.15625-1.6953 0.23438-2.5469 0.23438-2.9922 0-5.3281-0.75781-7.0156-2.2812-1.6797-1.5312-2.5156-3.6602-2.5156-6.3906 0-2.7266 0.83594-4.8594 2.5156-6.3906 1.6875-1.5312 4.0234-2.2969 7.0156-2.2969 0.86328 0 1.7109 0.078125 2.5469 0.23438 0.84375 0.15625 1.6875 0.38672 2.5312 0.6875z"/>
  </symbol>
  <symbol id="g" overflow="visible">
   <path d="m19.156-10.062v10.062h-5.3125v-7.6719c0-1.4453-0.03125-2.4414-0.09375-2.9844-0.0625-0.53906-0.17188-0.94141-0.32812-1.2031-0.21094-0.34375-0.49219-0.60938-0.84375-0.79688-0.35547-0.19531-0.75781-0.29688-1.2031-0.29688-1.1055 0-1.9766 0.42969-2.6094 1.2812-0.625 0.85547-0.9375 2.0312-0.9375 3.5312v8.1406h-5.2812v-22.969h5.2812v8.8594c0.78906-0.96875 1.6328-1.6797 2.5312-2.1406 0.89453-0.45703 1.8828-0.6875 2.9688-0.6875 1.9062 0 3.3516 0.58984 4.3438 1.7656 0.98828 1.168 1.4844 2.8711 1.4844 5.1094z"/>
  </symbol>
  <symbol id="r" overflow="visible">
   <path d="m13.422-22.969v3.4688h-2.9219c-0.75 0-1.2773 0.13672-1.5781 0.40625-0.29297 0.27344-0.4375 0.74219-0.4375 1.4062v1.1562h4.5156v3.7812h-4.5156v12.75h-5.2812v-12.75h-2.625v-3.7812h2.625v-1.1562c0-1.8008 0.5-3.1289 1.5-3.9844 1.0078-0.86328 2.5664-1.2969 4.6719-1.2969z"/>
  </symbol>
  <symbol id="e" overflow="visible">
   <path d="m10.406-13.156c-1.168 0-2.0586 0.42188-2.6719 1.2656-0.61719 0.84375-0.92188 2.0586-0.92188 3.6406 0 1.5859 0.30469 2.7969 0.92188 3.6406 0.61328 0.84375 1.5039 1.2656 2.6719 1.2656 1.1562 0 2.0352-0.42188 2.6406-1.2656 0.61328-0.84375 0.92188-2.0547 0.92188-3.6406 0-1.582-0.30859-2.7969-0.92188-3.6406-0.60547-0.84375-1.4844-1.2656-2.6406-1.2656zm0-3.7812c2.8438 0 5.0625 0.77344 6.6562 2.3125 1.6016 1.5312 2.4062 3.6562 2.4062 6.375s-0.80469 4.8438-2.4062 6.375c-1.5938 1.5312-3.8125 2.2969-6.6562 2.2969-2.8555 0-5.0898-0.76562-6.7031-2.2969-1.6055-1.5312-2.4062-3.6562-2.4062-6.375s0.80078-4.8438 2.4062-6.375c1.6133-1.5391 3.8477-2.3125 6.7031-2.3125z"/>
  </symbol>
  <symbol id="q" overflow="visible">
   <path d="m2.7812-22.047h6.3438l8.0156 15.125v-15.125h5.3906v22.047h-6.3438l-8.0312-15.125v15.125h-5.375z"/>
  </symbol>
  <symbol id="p" overflow="visible">
   <path d="m2.3594-6.4375v-10.094h5.3125v1.6562c0 0.89844-0.007813 2.0234-0.015625 3.375-0.011719 1.3438-0.015625 2.2461-0.015625 2.7031 0 1.3242 0.035156 2.2812 0.10938 2.875 0.070312 0.58594 0.19141 1.0078 0.35938 1.2656 0.20703 0.34375 0.48828 0.60938 0.84375 0.79688 0.35156 0.1875 0.75391 0.28125 1.2031 0.28125 1.1016 0 1.9688-0.42188 2.5938-1.2656 0.63281-0.84375 0.95312-2.0195 0.95312-3.5312v-8.1562h5.2812v16.531h-5.2812v-2.3906c-0.80469 0.96875-1.6523 1.6836-2.5469 2.1406-0.88672 0.44531-1.8672 0.67188-2.9375 0.67188-1.9062 0-3.3594-0.58203-4.3594-1.75-1-1.1641-1.5-2.8672-1.5-5.1094z"/>
  </symbol>
  <symbol id="o" overflow="visible">
   <path d="m19.156-10.062v10.062h-5.3125v-7.7031c0-1.4258-0.03125-2.4102-0.09375-2.9531-0.0625-0.53906-0.17188-0.94141-0.32812-1.2031-0.21094-0.34375-0.49219-0.60938-0.84375-0.79688-0.35547-0.19531-0.75781-0.29688-1.2031-0.29688-1.1055 0-1.9766 0.42969-2.6094 1.2812-0.625 0.85547-0.9375 2.0312-0.9375 3.5312v8.1406h-5.2812v-16.531h5.2812v2.4219c0.78906-0.96875 1.6328-1.6797 2.5312-2.1406 0.89453-0.45703 1.8828-0.6875 2.9688-0.6875 1.9062 0 3.3516 0.58984 4.3438 1.7656 0.98828 1.168 1.4844 2.8711 1.4844 5.1094z"/>
  </symbol>
  <symbol id="n" overflow="visible">
   <path d="m2.7812-22.047h9.4219c2.8125 0 4.9688 0.625 6.4688 1.875 1.5 1.2422 2.25 3.0156 2.25 5.3281s-0.75 4.0938-2.25 5.3438c-1.5 1.2422-3.6562 1.8594-6.4688 1.8594h-3.75v7.6406h-5.6719zm5.6719 4.125v6.1562h3.1562c1.0938 0 1.9414-0.26562 2.5469-0.79688 0.60156-0.53906 0.90625-1.3008 0.90625-2.2812 0-0.98828-0.30469-1.75-0.90625-2.2812-0.60547-0.53125-1.4531-0.79688-2.5469-0.79688z"/>
  </symbol>
  <symbol id="m" overflow="visible">
   <path d="m2.5469-16.531h5.2812v16.234c0 2.2188-0.53125 3.9102-1.5938 5.0781-1.0625 1.1641-2.6055 1.75-4.625 1.75h-2.6094v-3.4688h0.90625c1.0078 0 1.7031-0.23047 2.0781-0.6875 0.375-0.44922 0.5625-1.3398 0.5625-2.6719zm0-6.4375h5.2812v4.3125h-5.2812z"/>
  </symbol>
 </defs>
 <g>
  <path d="m458.26 278.82c4.1289 5.8555 7.1055 12.445 8.7695 19.414 1.3906 7.1367 4.7773 9.3125 12.098 8.4062 9.2539-1.2109 18.508-2.0547 27.762-2.8438v0.003906c4.4219-0.69922 8.8906-1.0625 13.367-1.0898 1.832-0.015626 3.6641 0.20703 5.4414 0.66406 1.8125 0.60547 3.3867 1.3906 3.6875 3.5703h0.003906c0.57812 2.1367-0.24219 4.4102-2.0586 5.6836-2.5547 1.8516-5.3672 3.3203-8.3477 4.3555-6.9414 2.2266-14.035 3.9414-21.227 5.1406-4.0117 0.21484-7.8789 1.5586-11.156 3.8828-3.2734 2.3242-5.8242 5.5273-7.3516 9.2422-1.0195 2.082-1.418 4.4102-1.1484 6.7148 0.66406 3.75 0 7.5586 1.0898 11.371h-0.003906c0.69141 3.1602-0.34375 6.4492-2.7188 8.6484-2.9648 3.3867-2.8438 4.4141 0.90625 6.8359v-0.003906c3.2461 2.0312 6.5977 3.8906 10.039 5.5664 5.8984 3.0391 11.301 6.9531 16.027 11.613 2.4922 2.1953 5.418 3.8438 8.5898 4.8359 3.2656 1.1484 6.5938 2.2969 9.918 3.207 11.969 3.0703 22.945 9.1758 31.875 17.719 9.6758 9.3555 22.863 14.168 36.289 13.246 3.8203-0.10547 7.6289 0.46484 11.25 1.6953 2.0117 0.44922 3.5156 2.125 3.75 4.1719 0.38281 2.1836-0.63281 4.3789-2.543 5.5039-2.5234 1.6797-5.5898 2.3477-8.5859 1.875-9.2461-0.90625-18.539-1.207-27.824-0.90625-6.832 0.14844-13.609-1.2383-19.836-4.0547-4.3516-2.1445-8.4141-4.8281-12.098-7.9805-7.7852-7.043-17.574-11.48-28.004-12.703-3.9336-0.62109-7.8008-1.6133-11.551-2.9648-4.0625-1.875-7.8164-4.3633-11.129-7.375-3.5859-3.0352-7.6836-5.4102-12.098-7.0195-4.7773-1.332-6.0469-1.1484-8.7695 3.0234v0.003907c-4.0312 7.0078-10.922 11.914-18.867 13.426-3.0352 0.88672-5.8945 2.2773-8.4688 4.1133-1.8594 1.5273-3.1055 3.6758-3.5078 6.0469-3.3281 10.223-5.5625 12.098-16.27 12.098h-13.91c-4.0625-0.17188-7.7812 2.2578-9.2539 6.0469-0.83203 2.5195-1.4219 5.1094-1.7539 7.7422-0.85156 6.957-3.5938 13.543-7.9258 19.051-2.0312 2.8359-3.6797 5.9258-4.8984 9.1953-2.1523 5.7734-5.3516 11.105-9.4336 15.723-1.5117 1.4531-2.9023 2.7227-5.1406 1.9336v0.003906c-2.1406-0.68359-3.5547-2.7188-3.4492-4.9609-0.21094-3.1602-0.21094-6.332 0-9.4961 0.90625-8.5273 1.9961-17.117 3.6875-25.582h0.003906c0.46484-3.293 0.027344-6.6523-1.2617-9.7188-1.2891-3.0664-3.3789-5.7266-6.0586-7.6992-2.6016-2.0859-5.5195-3.7422-8.6484-4.8984-12.398-5.5625-24.191-0.78516-33.082 9.6172v-0.003906c-4.1719 4.9492-7.9375 10.227-11.25 15.789-4.7578 7.5469-11.328 13.785-19.113 18.141-5.8398 3.5352-10.984 8.1055-15.18 13.488-8.5898 10.766-18.145 20.988-26.734 31.449-8.5898 10.465-18.145 21.531-26.613 32.902l0.003906 0.003906c-1.7539 2.0859-3.7891 3.918-6.0508 5.4414-1.8477 1.5664-4.5586 1.5664-6.4102 0-2.418-1.5742-1.4531-3.8086-0.48438-6.0469 2.2539-4.6133 4.9922-8.9727 8.1641-13.004 7.3438-9.2188 14.148-18.852 20.383-28.852 4.4805-7.5703 8.3242-15.5 11.492-23.707 5.7266-13.855 14.203-26.41 24.918-36.895 2.5312-2.3711 4.9141-4.8984 7.1367-7.5586 6.0039-8.2617 9.3398-18.16 9.5586-28.367 0.48047-3.7812 0.23438-7.6211-0.72656-11.312-0.74219-2.8984-2.5312-5.418-5.0195-7.0742-2.3242-1.3906-4.1133-3.5195-5.082-6.0469-1.2109-3.1445-2.9648-4.0508-6.0469-3.0859-1.4102 0.48438-2.7852 1.0703-4.1133 1.7539-8.625 3.2734-18.117 3.4453-26.855 0.48437-2.5234-0.29687-5.0273-0.74219-7.5-1.332-4.4961-1.6758-9.3398-2.1953-14.09-1.5117-4.0977 0.625-7.9922 2.1992-11.371 4.5977-8.082 5.543-16.953 9.8438-26.309 12.762-5.5781 1.4453-10.875 3.8164-15.664 7.0156-4.7773 3.2656-9.918 6.0469-14.816 9.1328h-0.003906c-2.1289 1.3281-4.6406 1.9023-7.1367 1.6328-1.9805-0.054688-3.7422-1.2695-4.5-3.0977-0.75781-1.8281-0.36719-3.9336 0.99219-5.3711 2.0977-2.4961 4.5664-4.6602 7.3203-6.4102 8.2344-5.1133 15.656-11.434 22.012-18.75 8.1758-9.1797 17.723-17.035 28.309-23.285 5.3398-3.1484 11.398-4.8789 17.598-5.0195 8.2969-0.69141 16.445-2.5859 24.195-5.625 2.2812-0.62891 4.1797-2.2188 5.1992-4.3555 4.3906-7.8008 5.1016-17.148 1.9375-25.523-1.8359-4.2617-5.2344-7.6602-9.4961-9.4961-4.8594-2.082-9.9922-3.4453-15.242-4.0508-5.3945-0.95312-10.574-2.8594-15.301-5.625-3.0234-1.7539-6.0469-3.2656-9.2539-4.7773-5.168-2.4453-11.082-2.8125-16.512-1.0273-7.0117 1.8672-14.148 3.2422-21.352 4.1133-3.6602 0.32031-7.3516-0.027344-10.887-1.0312-3.9141-0.77734-7.957-0.60938-11.793 0.48438l-24.191 6.5938c-3.0664 0.85547-6.3086 0.85547-9.375 0-2.1172-0.60547-4.1133-1.5117-4.2344-4.2344-0.35938-2.3867 0.89453-4.7266 3.0859-5.7461 6.0664-3.1094 12.539-5.3477 19.23-6.6523l9.8008-1.5117c12.434-2.3633 24.375-6.8242 35.32-13.184 7.2266-3.7539 15.207-5.8203 23.344-6.0508 4.9883-0.16016 9.9805 0.042969 14.941 0.60547 7.082 0.94922 14.27 0.74609 21.289-0.60547 6.0664-1.2617 11.586-4.3945 15.785-8.9492 3.0156-3.1172 5.8242-6.4336 8.4062-9.9219 2.5664-3.375 4.0156-7.4688 4.1445-11.707 0.13281-4.2383-1.0625-8.4141-3.418-11.941-3.1445-4.3164-7.0859-7.9883-11.613-10.824-5.832-3.2266-10.762-7.8633-14.332-13.488-2.1016-2.8086-4.8633-5.0547-8.0469-6.5312-9.8438-6.3789-17.441-15.688-21.711-26.613-2.3555-6.4766-4.1953-13.129-5.5039-19.898-0.58203-2.3438-0.58203-4.793 0-7.1367 0.074219-1.5703 1.1172-2.9258 2.6172-3.3984 1.5-0.47266 3.1328 0.039062 4.0938 1.2812 2.2773 2.1758 4.1758 4.7109 5.625 7.5 2.9648 5.2031 5.5625 10.586 8.6484 15.727h0.003906c5.2422 9.9336 13.531 17.922 23.648 22.801 13.066 6.5742 27.234 10.676 41.789 12.098 4.3945 0.4375 8.6914-1.4727 11.312-5.0195 0.88281-1.2188 1.918-2.3164 3.0859-3.2656 4.9492-3.8867 6.6406-10.629 4.1094-16.391-1.793-6.6875-5.0586-12.887-9.5547-18.145-4.3203-5.2031-8.3594-10.637-12.098-16.27-3.2695-5.3789-5.4883-11.332-6.5312-17.543-3.0234-13.73-1.1484-27.82-3.5078-41.613v0.003906c-1.0352-5.7031-2.4062-11.336-4.1133-16.875-2.5156-7.75-7.7305-14.34-14.695-18.566-9.3125-6.4102-18.145-13.668-26.855-20.684v-0.003906c-5.6602-4.1523-9.6328-10.207-11.188-17.055-0.78906-2.2891-0.27344-4.8281 1.3477-6.625 1.625-1.8008 4.0938-2.5742 6.4531-2.0234 1.332 0.16797 2.6094 0.62109 3.75 1.332 11.715 6.9961 23.832 13.297 36.289 18.867 6.8594 3.6836 13.035 8.5078 18.266 14.273 4.2812 4.2539 7.2422 9.6523 8.5273 15.547 1.6953 7.4375 3.3281 14.938 4.7188 22.438 3.6953 18.094 10.508 35.41 20.141 51.168 4.2148 6.5898 6.8633 14.059 7.7422 21.832 0.88672 6.5508 4.9336 12.246 10.824 15.242 7.1641 4.8594 15.547 7.6016 24.195 7.9219 10.223 0 19.957-1.2695 26.734-10.223l-0.003906 0.003906c3.7109-5.1641 5.8164-11.309 6.0508-17.66 0.32422-4.3945 1.9219-8.5977 4.5938-12.098 1.8125-2.5391 3.207-5.3828 5.0195-7.9219 1.2188-1.9883 1.9844-4.2188 2.2383-6.5352 0.71875-6.9727 3.4023-13.602 7.7422-19.109 6.3594-8.582 10.512-18.59 12.098-29.152 0.91406-3.543 2.168-6.9844 3.75-10.281 0.57813-1.8594 2.5469-2.9102 4.4141-2.3594 2.1758 0.54297 2.7227 2.0547 2.8438 4.0508 0.35547 6.6445-0.11328 13.309-1.3906 19.84-1.2344 5.8398-2.7695 11.613-4.5977 17.297-1.418 5.1484-3.7109 10.02-6.7734 14.395-2.2695 3.3008-3.5273 7.1875-3.6289 11.188 0 3.3281 0 6.6523-0.36328 9.9805 0.13281 2.5156-0.52344 5.0117-1.875 7.1367-1.9414 2.7578-2.6406 6.1992-1.9375 9.4961 0.51172 4.1719 1.9336 8.1797 4.1758 11.734 1.5039 2.6719 4.207 4.4492 7.2578 4.7773 5.1445 0.6875 10 2.7812 14.031 6.0469 2.2891 1.8242 5.0352 2.9805 7.9375 3.3438 2.9023 0.35938 5.8477-0.082031 8.5117-1.2852 6.0117-2.2344 11.855-4.9023 17.48-7.9844 5.8906-2.8789 10.531-7.8008 13.062-13.852 4.4102-10.242 13.363-17.832 24.195-20.504 4.293-1.3906 8.7109-1.7539 13.062-2.7812 11.801-3 23.105-7.6836 33.566-13.91 3.6875-2.1172 7.1992-4.7188 10.766-7.1367 1.5938-1.168 3.3203-2.1406 5.1406-2.9023 1.5898-0.48047 3.0391-1.3281 4.2344-2.4805 9.0391-8.3203 17.617-17.125 25.707-26.371 0.41016-0.53125 0.85547-1.0352 1.3281-1.5117 1.4961-1.7383 3.7812-2.582 6.0508-2.2383 1.7539 0.48438 2.6016 3.5703 2.1758 6.6523-0.38672 1.7891-1.1719 3.4609-2.2969 4.9023-5.9258 9.8281-13.262 18.73-21.773 26.43-5.3242 4.5352-8.832 10.645-13.73 15.605-5.8711 5.9766-13.539 9.8672-21.832 11.066-10.625 1.7344-19.93 8.0898-25.402 17.359-6.5781 11.336-14.609 21.77-23.891 31.027-1.875 1.6328-3.8086 3.207-6.0469 4.7773h-0.003906c-1.8555 1.4844-2.25 4.1484-0.90625 6.1094 2.0352 4.7461 5.4766 8.7578 9.8594 11.488 4.2578 2.4336 7.0078 6.8438 7.3164 11.734 0.26953 2.8555 1.4844 5.5352 3.4492 7.6211 5.6836 6.0469 9.0703 13.426 14.574 19.355 1.1719 1.3555 1.7227 3.1445 1.5156 4.9258-0.20703 1.7812-1.1523 3.3945-2.6016 4.4492-1.3398 1.2383-2.8203 2.3164-4.418 3.2031-8.4062 4.293-16.934 8.4688-25.344 12.699-3.1445 1.5742-6.0469 3.3867-9.2539 4.8398h0.003906c-5.8789 2.9453-12.305 4.6367-18.871 4.9609zm0-11.672c-1.875 0.96875-2.0547 2.9023-2.5391 4.5977 1.4727-1.1055 2.3633-2.8203 2.418-4.6602 1.1562-0.69922 2.0156-1.7969 2.418-3.082-1.6914 0.90625-2.7188 1.6914-2.3555 3.1445zm25.824-17.117c1.6953-0.42188 2.6602-1.875 3.9297-2.9023h0.003906c1.3438-1.5156 3.4336-2.1289 5.3828-1.5742-9.3359 7.4414-17.141 16.625-22.984 27.035 2.4805 0 5.2617 0 5.5625-3.8086h0.003906c0.3125-0.94531 0.85156-1.7969 1.5703-2.4805l6.8359-8.5273c3.9922-4.8984 9.2539-8.5273 13.488-13.184 0.60547-0.60547 1.4531-0.96875 2.1172 0 0.46875 0.48828 0.46875 1.2617 0 1.7539-0.57812 0.59375-1.1836 1.1602-1.8164 1.6914-5.6953 4.7188-11.086 9.7891-16.148 15.18-1.918 1.8516-3.4062 4.1016-4.3555 6.5938 2.9648-1.5742 6.0469-1.875 7.0781-3.9297 2.0664-3.1992 4.5703-6.0898 7.4375-8.5898 3.207-3.5703 6.5938-7.0156 9.9805-10.402 0.78516-0.78516 1.8125-2.6016 3.1445-1.1484 1.332 1.4531-0.54297 1.9961-1.2695 2.7227-4.1719 4.293-8.4062 8.4688-12.641 12.699-0.66406 0.72656-1.8125 1.2695-1.8125 2.8438 1.8125-0.96875 3.6875-1.332 4.5977-2.5391 4.6562-6.0469 11.066-10.402 15.605-16.57l-0.003906-0.003906c-1.707-2.0156-4.2578-3.1133-6.8945-2.9648-5.0195 0-9.7383 2.2383-14.695 2.5391l-0.003906 0.003906c-1.0117 0.078125-1.8867 0.73828-2.2383 1.6914-0.54297 1.3906-1.332 2.6016-1.9961 3.9297l0.003906 0.003906c-5.5195 3.7266-10.281 8.4688-14.035 13.969-2.7617 2.9062-4.832 6.4023-6.0469 10.223 0.90625 0.60547 1.7539 0.54297 2.1172 0 5.8047-8.1641 11.914-16.148 18.023-24.254zm109.54-176.24c-1.9336 0-2.9023 1.4531-3.9297 2.7812-6.5312 7.9844-14.094 14.938-21.109 22.438-4.2227 3.7148-8.9219 6.8438-13.973 9.3164-6.3203 4.2695-12.883 8.168-19.656 11.672-8.6445 4.6836-17.941 8.0469-27.578 9.9805-4.7344 0.80469-9.375 2.082-13.852 3.8086-8.5234 2.7148-15.383 9.1094-18.688 17.418-2.6445 6.5352-7.5938 11.871-13.914 15-3.8086 2.0547-7.7422 3.9297-11.672 5.6836-3.0234 1.332-6.1094 2.5391-9.2539 3.6289v0.003906c-5.6367 1.8867-11.852 0.74219-16.449-3.0273-4.2539-3.1797-9.293-5.1445-14.578-5.6836-4.2344-0.58984-7.8477-3.3711-9.4961-7.3203-1.3594-2.4688-2.375-5.1133-3.0234-7.8594-1.0273-4.1719-2.9023-8.7109-0.42188-12.641 2.3086-4.2383 3.3984-9.0312 3.1445-13.852-0.30078-7.3594 1.9414-14.602 6.3516-20.504 0.57812-0.82031 1.0469-1.7148 1.3906-2.6602 5.8203-12.723 8.8906-26.531 9.0117-40.523 0-0.48438 0-0.90625-1.5117-0.72656-0.96875 3.8711-2.1172 7.9844-3.0859 12.098-1.2305 7.9219-4.4336 15.41-9.3125 21.773-4.7266 5.1719-7.8008 11.637-8.832 18.566-0.91797 6.1094-3.4688 11.852-7.3789 16.633-2.0039 2.4688-3.3555 5.4023-3.9297 8.5273-0.84766 4.2344-2.2383 8.3477-3.0859 12.582-2.7812 14.457-19.172 22.074-30.242 21.953-5.2969-0.015625-10.578-0.66406-15.723-1.9336-7.4883-2.0586-14.391-5.8516-20.141-11.07-4.0156-3.8164-6.6016-8.8984-7.3203-14.395-0.64453-5.9648-2.4727-11.742-5.3828-16.992-2.2969-3.6289-4.293-7.5-6.0469-11.309v-0.003906c-5.1992-9.5742-9.2578-19.723-12.098-30.238-2.3594-9.8594-4.3555-19.777-6.5938-29.637h0.003906c-1.082-7.2617-4.2539-14.051-9.1328-19.535-6.1328-6.7891-13.609-12.227-21.957-15.969-5.793-2.1758-11.395-4.8281-16.754-7.9219-4.7188-2.8438-9.4336-5.5625-14.152-8.2852-2.2383-1.332-4.8984-2.3594-7.0156-0.42188-2.1172 1.9336-0.42188 4.0508 0 6.0469v-0.003906c1.9961 4.9141 5.4062 9.125 9.7969 12.098 8.9531 7.1992 18.145 14.215 27.336 20.867h0.003906c6.4062 3.9922 11.316 9.9883 13.973 17.055 2.6953 7.832 4.4805 15.949 5.3203 24.191 1.0273 11.551 1.0273 23.164 2.7812 34.715v0.003907c1.5664 10.215 5.9219 19.801 12.582 27.699 6.0781 6.5898 11.172 14.027 15.121 22.078 3.0234 7.2578 3.75 18.145-4.0508 24.617l-0.003906-0.003907c-0.80469 0.60547-1.5 1.3398-2.0547 2.1797-2.7812 3.8945-7.3125 6.1562-12.098 6.0469-5.4688 0.089844-10.926-0.45703-16.27-1.6328-9.0703-2.0586-17.938-4.9297-26.488-8.5898-5.418-1.7031-10.391-4.5703-14.578-8.4062-6.3398-6.1328-11.777-13.141-16.148-20.805-2.2422-4.6445-4.7227-9.1641-7.4375-13.547-0.85938-1.6523-2.2422-2.9688-3.9336-3.75-0.89453 0.96094-1.1523 2.3477-0.66406 3.5664 0.96875 4.9609 2.5391 9.6758 3.9297 14.457 3.168 13.234 11.453 24.676 23.043 31.812 3.4922 1.6406 6.4922 4.1641 8.7109 7.3164 3.0039 4.582 7.0156 8.4102 11.734 11.191 5.8711 3.5039 10.828 8.3555 14.453 14.152 2.0898 3.7461 3.0742 8.0078 2.8359 12.289-0.23438 4.2812-1.6797 8.4102-4.1641 11.902-3.5234 5.6719-7.957 10.719-13.125 14.941-4.8516 4.3633-11.031 6.9609-17.539 7.3789-7.8008 0.65234-15.645 0.49219-23.406-0.48438-2.0156-0.15625-4.0352-0.15625-6.0508 0-10.48 0.26953-20.734 3.0938-29.879 8.2227-10.824 5.8984-22.59 9.8711-34.773 11.734-7.2539 0.91016-14.352 2.7812-21.109 5.5664-1.4336 0.46484-2.7812 1.1562-3.9922 2.0547-0.71484 0.47656-1.0742 1.3359-0.90625 2.1797 0.25 0.80859 1.0273 1.3359 1.875 1.2695 2.0312 0.13281 4.0703-0.050782 6.0469-0.54688l20.625-6.0469c6.2695-2.3203 13.078-2.7617 19.594-1.2695 3.4102 0.72656 6.9336 0.72656 10.344 0 6.9219-0.83984 13.773-2.1758 20.504-3.9922 5.3398-1.5156 11.062-0.91016 15.969 1.6953l10.223 5.2617h-0.003906c4.4219 2.6484 9.3438 4.3555 14.457 5.0195 6.3594 0.58203 12.531 2.457 18.145 5.5039 4.1875 2.0781 7.4609 5.6328 9.1914 9.9766 3.8242 9.0039 3.3789 19.246-1.2109 27.883-1.1172 3.207-3.5312 5.7969-6.6523 7.1367-8.8438 3.6797-18.211 5.9453-27.762 6.7148-6.5 0.25-12.793 2.3477-18.145 6.0469-7.6211 4.9883-14.715 10.746-21.168 17.176-2.3594 2.3594-4.4141 5.0195-6.7734 7.3164-6.4727 6.4727-13.91 12.098-20.805 17.781v0.003906c-1.707 1.1875-2.9609 2.9102-3.5703 4.8984 1.125 0.64844 2.5078 0.64844 3.6289 0 4.7891-2.3008 9.3828-4.9922 13.73-8.043 5-3.8125 10.629-6.7188 16.633-8.5898l3.3867-0.90625c8.0742-2.5352 15.754-6.2031 22.801-10.887 4.7109-3.3633 10.211-5.4492 15.969-6.0469 5.125-0.19922 10.238 0.60156 15.059 2.3594 4.8008 1.8945 9.8203 3.1758 14.941 3.8086 6.6445 0.625 13.332-0.56641 19.352-3.4492 0.88672-0.44531 1.8203-0.79297 2.7852-1.0273 1.8047-0.74219 3.8477-0.64453 5.5781 0.26562 1.7266 0.91406 2.9609 2.543 3.3711 4.4531 0.78516 2.6523 2.6523 4.8477 5.1406 6.0469 2.2773 1.2969 3.9023 3.4922 4.4766 6.0508 1.0586 3.0938 1.5898 6.3438 1.5703 9.6133-0.12891 4.0547-0.51172 8.0938-1.1484 12.098-1.1758 10.477-5.9414 20.219-13.484 27.582-10.41 9.7344-18.973 21.27-25.285 34.051-2.3594 4.5977-3.9297 9.4961-6.0469 14.152-6.9297 14.504-15.535 28.145-25.645 40.641-3.5586 4.5977-6.7695 9.4492-9.6172 14.516-0.54297 0.90625-1.5117 1.875-0.42188 3.3867v0.003906c2.1914-0.62891 4.0664-2.0547 5.2617-3.9922 8.832-11.008 17.176-22.379 26.734-32.781 6.0469-6.0469 11.008-12.883 16.512-19.355 2.3047-2.3906 4.4648-4.9141 6.4688-7.5586 5.418-8.2188 12.664-15.07 21.168-20.02 7.1211-4.2578 13.148-10.121 17.602-17.117 3.5977-5.9414 7.6445-11.605 12.098-16.934 5.4375-6.6445 13.199-10.969 21.711-12.098 3.125-0.64844 6.3633-0.44141 9.375 0.60547 6.8906 2.5977 13.098 6.7344 18.145 12.094 4.6211 4.3945 6.5977 10.895 5.2031 17.117-2.4258 9.3242-3.6836 18.914-3.75 28.547 0 1.9961-1.2695 5.1406 1.2695 6.0469 2.5391 0.90625 3.207-2.4805 4.293-4.293 4.8398-8.2852 8.2266-17.297 13.668-25.281h0.003906c2.8789-4.8789 4.5586-10.371 4.8984-16.027 1.2695-9.3125 5.082-13.668 15.727-13.246h-0.003906c4.793 0.30469 9.6016 0.30469 14.395 0 4.2578-0.10156 8.0117-2.8203 9.4375-6.832 0.48437-1.2695 0.72656-2.6016 1.1484-3.8711 0.6875-2.6719 2.0938-5.1055 4.0664-7.0352 1.9727-1.9297 4.4375-3.2812 7.1211-3.9141l2.9023-0.66406h0.003906c7.6641-1.3906 14.195-6.3867 17.539-13.426 0.78125-1.8438 2.0312-3.4492 3.6289-4.6602 1.9453-1.8438 4.875-2.1914 7.1953-0.84375 5.543 2.6367 10.777 5.8828 15.605 9.6758 6.6875 5.5508 14.926 8.9102 23.586 9.6172 7.4023 0.53516 14.516 3.0859 20.566 7.3789 4.8984 3.6875 10.039 7.0781 15 10.766 3.8711 2.9102 8.4805 4.6914 13.305 5.1406 7.918 0.87891 15.91 0.87891 23.828 0 2.6562-0.375 5.3594-0.16797 7.9258 0.60547 2.6094 0.58203 5.3125 0.58203 7.9219 0 1.2109 0 2.2969-0.72656 2.2969-2.1172s-1.0273-2.0547-2.2383-2.3594c-0.50391-0.046875-1.0117-0.027344-1.5117 0.0625l-17.723-1.9336 0.003906-0.003906c-5.9961-0.33203-11.836-2.0508-17.059-5.0195-3.6445-2.3125-7.0508-4.9883-10.16-7.9844-9.8125-8.7734-21.629-15.004-34.414-18.145-6.7461-1.6367-12.977-4.918-18.145-9.5547-5.1719-4.6016-11.055-8.3398-17.418-11.07-3.4727-1.5195-6.6953-3.5586-9.5547-6.0469-3.5703-3.3867-3.6289-6.0469 0-9.1914 2.5898-2.1641 3.6367-5.6641 2.6602-8.8906-0.78516-3.75-1.0273-7.5586-1.5117-11.371-0.32422-2.1055 0.125-4.2539 1.2695-6.0508 0.90625-1.5742 1.875-3.0859 2.6602-4.7188v0.003906c1.9961-3.6992 5.293-6.5234 9.2539-7.9258 4.4297-1.9141 9.1172-3.1602 13.91-3.6875 5.6836-0.60547 10.945-2.7227 16.512-3.8086v-0.003907c2.6055-0.60938 5.043-1.7852 7.1367-3.4453 1.9336-1.3906 1.6953-3.0234-0.48438-3.5703h0.003907c-2.3945-0.72266-4.8789-1.0898-7.3789-1.0859l-25.16 2.5391c-5.2617 0.48438-10.586 1.2109-15.848 1.5117-3.0195 0.30078-6.0312-0.65625-8.3242-2.6484-2.2891-1.9922-3.6523-4.8438-3.7734-7.875-0.32812-2.9688-1.125-5.8672-2.3594-8.5898-2.043-3.7383-4.3047-7.3516-6.7734-10.824-2.4688-5.2383-6.7734-9.3906-12.094-11.676-4.7031-1.8906-8.8594-4.9258-12.098-8.8281-2.0039-2.457-4.3438-4.6133-6.957-6.4102-7.2188-4.1523-15.441-6.2461-23.77-6.0508-3.3477-0.39062-6.7344 0.22266-9.7344 1.7539-4.3008 2.2227-9.2031 2.9883-13.973 2.1797-6.0469-0.54297-11.613-2.7227-17.602-3.5078-5.6016-1.3086-11.406 1.1328-14.395 6.0469-2.1367 3.3906-5.457 5.8672-9.3125 6.957-4.1562 1.543-7.9453 3.9297-11.129 7.0156-2.9102 2.6562-6.0273 5.082-9.3164 7.2578-7.6914 4.4727-13.023 12.105-14.574 20.863-0.75391 4.8906-0.75391 9.8672 0 14.758 0.89453 7.9688 4.1836 15.477 9.4336 21.531 3.8477 4.1289 6.375 9.3086 7.2578 14.879 0.50391 5.3672 3.0586 10.328 7.1367 13.852 4.6484 4.1367 10.805 6.1523 16.996 5.5625 3.3945-0.50391 6.7773 0.97656 8.7109 3.8125 1.5742 1.9414 3.3164 3.7422 5.1992 5.3828 4.7852 4.4414 11.992 5.0156 17.422 1.3906 4.7812-2.9727 9.9492-5.2695 15.359-6.8359 6.0703-1.5898 11.082-5.8672 13.609-11.609 1.6758-3.6016 3.6992-7.0234 6.0469-10.223 4.2891-5.6602 5.4062-13.109 2.9648-19.777-1.4727 0.003906-2.8594 0.69922-3.75 1.875l-6.0469 5.2617c-1.793 1.7852-4.2461 2.75-6.7734 2.6602-4.3281-0.21875-8.4844-1.7617-11.902-4.4258-3.4219-2.6602-5.9375-6.3086-7.2109-10.453-0.33203-0.9375-0.33203-1.9609 0-2.9023 1.6328-3.207 3.5078-6.0469 5.3242-9.4961h-0.003906c0.59766-0.83203 1.4805-1.4141 2.4805-1.6328 6.0977-2.4727 12.98-2.0703 18.75 1.0898 8.2969 4.9453 13.582 13.699 14.094 23.344 1.0312 5.6484-0.20703 11.473-3.4492 16.211-2.5352 3.4453-4.7617 7.1094-6.6523 10.945-2.9648 6.082-8.3359 10.645-14.816 12.582-6.125 1.7969-11.996 4.3555-17.48 7.6211-2.918 1.7969-6.3711 2.5234-9.7695 2.0625-3.3945-0.46484-6.5273-2.0898-8.8594-4.6016-1.6953-1.5742-3.4492-3.0859-5.082-4.7188-2.2109-2.2891-5.2852-3.543-8.4648-3.4492-3.668 0.14453-7.3125-0.58203-10.645-2.1172-6.7773-2.5742-11.938-8.2031-13.91-15.18-0.66797-2.8438-2.6016-5.0781-2.6016-8.2852 0.015625-3.0273-1.2344-5.9219-3.4492-7.9844-5.4883-5.8242-9.4219-12.938-11.43-20.684-2.5703-8.0703-2.8867-16.688-0.90625-24.918 1.793-6.9688 6.1016-13.023 12.094-16.996 6.5273-4.1328 12.66-8.8477 18.328-14.094 1.1641-1.1758 2.6289-2.0117 4.2344-2.418 4.1016-0.95703 7.6016-3.6172 9.6133-7.3203 2.375-3.6328 6.3672-5.8906 10.707-6.0469 5.3164-0.39062 10.66 0.26562 15.727 1.9375 5.5664 1.9023 11.609 1.9023 17.176 0 6.707-2.4492 13.914-3.2148 20.988-2.2383 11.68 0.63281 22.43 6.5547 29.211 16.086 0.98047 1.3477 2.2656 2.4453 3.75 3.207 3.8711 1.7539 7.7422 3.3867 11.734 5.082v-0.003906c0.40625-2.7617 1.5352-5.3672 3.2656-7.5586 5.4766-5.2344 11.566-9.7852 18.145-13.547 8.9844-4.707 18.852-7.4883 28.969-8.1641 2.1211-0.03125 4.2031-0.59375 6.0508-1.6367-0.63672-2.7656-2.0664-5.2891-4.1133-7.2578-3.6719-3.875-6.0938-8.7617-6.957-14.031-0.32812-2.8398-1.9609-5.3672-4.4141-6.832-5.2305-3.3633-9.4219-8.1172-12.098-13.73-1.4219-1.6992-2.0195-3.9375-1.6367-6.1211 0.38672-2.1797 1.7148-4.082 3.6328-5.1875 4.1172-3.3594 8.0547-6.9336 11.797-10.707 6.0742-7.043 11.48-14.637 16.148-22.68 5.9258-10.797 16.504-18.25 28.668-20.203 1-0.089844 1.9922-0.27344 2.9609-0.54297 5.2422-1.0898 10.09-3.5781 14.031-7.1953 3.4062-3.1641 6.543-6.6016 9.375-10.285 1.5547-2.3594 3.4297-4.4961 5.5664-6.3477 8.957-8.1133 16.73-17.438 23.102-27.703 1.2422-1.3008 1.5117-3.25 0.66797-4.8359zm-194.75 242.41c-1.4219-0.55859-2.9961-0.55859-4.418 0-3.8711 0.91016-7.6562 2.1641-11.309 3.75-0.84766 0.42188-1.9336 1.332-2.6016 0-2.4805-3.6289-2.8438 0-3.2656 1.0273-0.47266 1.9727-0.050782 4.0508 1.1484 5.6836 3.5586 4.8867 9.2617 7.7461 15.301 7.6836 2.7266-0.80078 5.0703-2.5625 6.5938-4.9609 1.2695-1.4531 0-2.7227-0.60547-3.9922-0.60547-1.2695 0.36328-2.1172 1.4531-2.5391 0.78906-0.25781 1.5977-0.46094 2.418-0.60547 0.90625 0 1.875 0 2.0547-2.1758-5.625 3.3867-11.43 0.72656-16.934 1.8125-0.48438 0.15625-1.0117-0.042968-1.2695-0.48437-0.38281-0.54297-0.38281-1.2695 0-1.8125 0.84766-0.96875 2.0547-0.96875 3.1445-1.332 2.8555-0.23047 5.6562-0.92578 8.2891-2.0547zm83.16-69.254c-1.5703-0.24219-3.1523 0.35547-4.1719 1.5742-4.293 4.7188-9.2539 8.9531-13.184 14.031h-0.003906c-2.5898 2.9648-4.6367 6.3633-6.0469 10.039 0 0.78516-0.60547 1.6328 0.36328 2.1172 0.77734 0.40234 1.7305 0.17188 2.2383-0.54297 0.42188-0.66406 0.78516-1.4531 1.2109-2.1172l3.8086-6.4102c4.5352-6.8086 9.832-13.082 15.785-18.691zm32.359 0-2.3594 4.1719v0.003906c0.94922-0.097656 1.8008-0.64062 2.2891-1.4648 0.48828-0.82031 0.55859-1.8281 0.19141-2.7109z"/>
  <path d="m252.2 305.55c-2.2383-4.2344-5.5039-8.1055-2.2969-13.184 0.42188-0.60547 0-1.9336-0.36328-2.8438-0.66406-2.418-1.4531-4.7773-2.2383-7.1367 0-0.84766 0-1.7539 0.54297-2.1758s1.6953 0.66406 1.9961 1.5742c0.72656 1.9961 1.2109 4.1133 1.9336 6.0469 0.72656 1.9336 2.1758 5.2617 3.1445 7.8633 0 0.72656 1.2109 1.5117 0 2.2383-1.2109 0.72656-1.7539 0-2.4805-0.84766l0.003906-0.003906c-0.32422-0.19531-0.66797-0.35938-1.0273-0.48438-0.72656 3.207 1.875 5.8086 0.78516 8.9531z"/>
  <path d="m359.25 269.75c3.0078-1.0039 5.7109-2.7539 7.8633-5.082 2.0547-1.8125 3.75-4.4141 7.1992-3.5703h-0.003906c-4.3477 4.0117-8.9766 7.7109-13.848 11.07-1.9336 1.2109-3.4492 0-5.082-0.36328-1.6328-0.36328-1.0273-1.2695-0.78516-2.1172 1.0938-2.7773 3.0977-5.1016 5.6836-6.5938 0.51172-0.47656 1.3047-0.47656 1.8164 0 0.66406 0.84766 0 1.5117-0.36328 2.1758-0.36328 0.66797-2.9648 1.9375-2.4805 4.4805z"/>
  <path d="m433.16 202.55c0.87109-1.9688 2.8672-3.1953 5.0195-3.0859 6.6523-1.2109 13.305-2.1758 20.02-3.1445 2.1094-0.55078 4.3281 0.36328 5.4414 2.2383z"/>
  <path d="m438.36 206.48c9.0742-2.7578 18.465-4.3242 27.941-4.6562 2.4805 0 2.4805 0 5.3828 1.5742v-0.003906c-3.6836 0.89062-7.457 1.3594-11.246 1.3906-3.5664 0.74609-7.1875 1.1914-10.828 1.332-3.7031 0.75781-7.5078 0.87891-11.25 0.36328z"/>
  <path d="m292.48 211.99c-4.7617 8.2695-7.9414 17.359-9.375 26.793 0 0.84766 0 1.875-1.2109 1.875-1.2109 0-1.4531-1.332-1.332-2.2969h0.003906c0.19922-2.043 0.5625-4.0664 1.0898-6.0508 1.6328-5.0195 3.4492-10.039 5.3242-14.938 1.0273-3.0234 1.8125-3.6875 5.5-5.3828z"/>
  <path d="m443.57 211.69c9.9258-3.8477 20.699-4.9766 31.207-3.2695-3.207 2.418-6.7734 0.96875-10.039 1.5117-3.2656 0.54297-6.5312 0.72656-9.8594 1.0273z"/>
  <path d="m308.51 378.98c-11.812-1.5859-23.27-5.1875-33.867-10.645 11.129 4.1133 23.102 5.1406 33.867 10.645z"/>
  <path d="m412.96 411.58c4.8398-6.5938 4.4141-13.789 6.0469-20.504 0.48438-2.0547 0.84766-4.2344 1.3906-6.0469h0.003906c0.097656-0.41016 0.35938-0.76172 0.72656-0.96875 0.36719-0.20703 0.80469-0.25 1.207-0.12109 1.0273 0 1.1484 1.1484 0.84766 1.9336-2.6016 7.1992-2.5391 15.059-5.625 22.074-0.66406 1.457-0.96875 3.6328-4.5977 3.6328z"/>
  <path d="m280.81 220.09c-2.7266 9.7617-4.7461 19.707-6.0469 29.758 0 0.72656-0.54297 1.2695-1.332 1.2109v-0.003906c-0.33203 0.023437-0.66016-0.10547-0.88281-0.35547-0.22266-0.24609-0.32422-0.58594-0.26562-0.91406 0.019531-1.3203 0.16406-2.6367 0.42188-3.9297 1.5742-7.2578 3.207-14.516 4.8398-21.773 0.30078-1.6953 0.54297-3.5078 3.2656-3.9922z"/>
  <path d="m339.9 355.88h-1.6953c-1.0898 0-2.6602 0.36328-2.6602-1.332 0-1.6953 1.5742-1.5742 2.6602-1.6953 4.1133-0.42188 8.2852-0.42188 12.098-1.2109v0.003906c2.3125-0.15234 4.5898-0.62109 6.7773-1.3906 1.0273-0.48438 1.9961-0.48438 2.418 0.72656 0.17188 0.47656 0.10938 1.0039-0.16016 1.4297-0.27344 0.42578-0.72656 0.69922-1.2305 0.74609-2.418 0.56641-4.8594 1.0117-7.3203 1.332-3.6875 0.66406-7.8633 1.0273-10.887 1.3906z"/>
  <path d="m301.8 201.28c-1.2109 10.406-8.1055 18.57-10.828 29.273-1.332-4.1133-1.5117-4.1719 3.8711-15.422 1.4297-5.0117 3.7891-9.7109 6.957-13.852z"/>
  <path d="m259.7 273.74c0-1.875-0.42188-3.75-0.36328-5.625 0-6.0469 0.72656-12.582 1.0898-18.93-0.17578-1.6758 0.82422-3.2578 2.4219-3.8086-0.066406 9.4844-0.69141 18.957-1.875 28.363z"/>
  <path d="m390.64 277.49c-0.5-1.3672 0.16406-2.8867 1.5117-3.4453 7.0469-3.8164 14.438-6.9531 22.074-9.375-2.9023 3.75-7.5586 4.4766-11.371 6.7148-3.8086 2.2383-7.9219 3.9922-12.215 6.1055z"/>
  <path d="m413.08 390.23c-0.68359 7.4297-2.7305 14.668-6.0469 21.352-0.53516 1.0039-1.1602 1.957-1.875 2.8438-0.42188 0.54297-1.0273 1.0273-1.6953 0.48438-0.23828-0.23047-0.375-0.54688-0.375-0.87891 0-0.33203 0.13672-0.64844 0.375-0.875 2.4414-3.918 4.2227-8.207 5.2617-12.703 0.625-1.8828 1.1289-3.8008 1.5117-5.7461 0.13281-1.875 1.1992-3.5586 2.8438-4.4766z"/>
  <path d="m406.01 393.86c0.59375 1.0078 0.59375 2.2617 0 3.2656-2.2148 7.1992-5.1094 14.164-8.6523 20.809-0.36328 0.66406-0.78516 1.0898-1.5742 0.78516h0.003906c-0.32031-0.09375-0.58203-0.32031-0.72266-0.62109-0.13672-0.30078-0.14062-0.64844-0.003906-0.95312 4.4766-7.1367 5.9258-15.906 10.949-23.285z"/>
  <path d="m296.47 368.94c-2.3594 1.5117-4.2344 0-6.0469-0.54297-6.5938-2.7227-13.73-3.6875-20.32-6.4102-0.47266-0.11328-0.9375-0.25781-1.3945-0.42578-1.0898-0.60547-3.2656-0.72656-2.6602-2.2383 0.60547-1.5117 2.0547 0 3.0859 0.36328l22.68 7.0156c1.7539 0.36328 3.5078 0.30469 4.6562 2.2383z"/>
  <path d="m376.61 275.13c8.6016-4.9648 17.555-9.293 26.793-12.945-7.6328 6.6055-16.875 11.074-26.793 12.945z"/>
  <path d="m433.64 382.79c-0.71484 5.9219-1.8672 11.785-3.4453 17.539-0.44141 1.9688-1.8906 3.5586-3.8125 4.1719-0.66797 0.10156-1.3242-0.24219-1.6328-0.84375-0.36328-0.60547 0-0.90625 0.48438-1.0898 2.4805-1.1484 2.7227-3.5078 3.2656-6.0469 1.3594-4.4062 2.2109-8.9531 2.543-13.551 0.070313-0.65625 0.27734-1.2969 0.60156-1.875 0.14453-0.30469 0.40625-0.53906 0.72266-0.65234 0.31641-0.11328 0.66797-0.097656 0.97266 0.050782 0.30078 0.54297 0.72656 0.90625 0.30078 2.2969z"/>
  <path d="m293.03 358.72c-9.4688-1.0117-18.766-3.2695-27.641-6.7148-1.1484-0.42188-2.7227-0.54297-2.6016-2.7227 9.918 3.8711 20.383 5.6875 30.242 9.4375z"/>
  <path d="m422.16 268.23-20.988 9.3125c-0.96875 0.42188-2.0547 0.72656-2.6602 0-0.60547-0.72656 0-1.9336 1.0898-2.2969l-0.003906 0.003906c6.8086-2.9297 13.801-5.4141 20.93-7.4414 0 0 0.54297-0.058594 1.6328 0.42188z"/>
  <path d="m428.08 195.36c7.8008-1.5742 15.484-4.7773 24.191-1.5742v0.003906c-7.9648 1.5312-16.094 2.0586-24.191 1.5703z"/>
  <path d="m327.14 333.5c-2.6055 0.085937-5.2148-0.19922-7.7422-0.84766-1.2695-0.54297-2.4805-1.0898-2.9023-2.4805-0.12109-0.45312-0.12109-0.93359 0-1.3906 0.28516-0.44531 0.85937-0.60156 1.332-0.36328 4.1172 1.668 8.5898 2.2695 13.004 1.7539 0.90625 0 1.7539 0 1.875 1.1484v0.003906c0.066406 0.49609-0.066406 1-0.375 1.3984-0.30469 0.39844-0.76172 0.65625-1.2578 0.71875-1.3086 0.09375-2.6211 0.11328-3.9336 0.058594z"/>
  <path d="m330.46 348.13h-0.60547c-1.2109 0-2.418-0.54297-2.3594-1.9336s1.332-1.2695 2.2969-1.332h0.003906c5.4219 0.03125 10.84-0.33203 16.207-1.0898 0.66406-0.19141 1.375 0.10938 1.6953 0.72656 0 0.66406 0 1.2109-0.78516 1.6328h-0.003907c-0.80469 0.58594-1.7852 0.88281-2.7812 0.84766z"/>
  <path d="m432.56 272.95c0 1.0898-0.78516 1.9961-1.5117 1.6953-6.5938-2.4805-12.098 1.2109-18.145 2.5391l-3.4492 1.0273c-0.54297 0-1.0898 0-1.0898-0.72656 0-0.72656 0.30078-1.0898 0.60547-1.1484 6.4844-2.4219 13.219-4.1055 20.082-5.0195 1.6328-0.30078 2.9609 0.0625 3.5078 1.6328z"/>
  <path d="m419.13 188.7c9.1172-1.9375 18.512-2.1445 27.703-0.60547-9.1211 1.8867-18.508 2.0938-27.703 0.60547z"/>
  <path d="m413.45 282.63c0-1.5742 0.42188-1.9961 1.2695-2.1758v-0.003906c5.9141-1.5625 12.039-2.1719 18.145-1.8125 0.98438 0.10156 1.9453 0.36719 2.8438 0.78516 0.96875 0.48438 2.3594 1.2109 1.8125 2.5391-0.54297 1.332-1.8125 0.42188-2.8438 0h0.003906c-4.6289-1.3086-9.5078-1.4727-14.215-0.48438-2.2969 0.24219-4.9609 0.72656-7.0156 1.1523z"/>
  <path d="m287.1 350.25c-0.59375 0.65625-1.4961 0.93359-2.3555 0.72656-7.9062-1.7422-15.684-4.0039-23.289-6.7734-0.61719-0.21094-1.2031-0.49609-1.7539-0.84766-0.54297-0.42188-0.96875-1.0273-0.60547-1.6953 0.36328-0.66406 1.0898-0.54297 1.7539 0h0.003906c7.375 3.2734 15.078 5.7461 22.98 7.3789 1.1758 0.10938 2.3047 0.52734 3.2656 1.2109z"/>
  <path d="m331.98 339.91h-8.5273c-1.2695 0-2.3594-0.66406-2.1758-2.1172 0.17969-1.4531 1.4531-0.96875 2.3594-1.0273h-0.003906c4.9727-0.019531 9.9414 0.26562 14.879 0.84766 0.78516 0 1.7539 0 1.8125 1.2695 0.058594 1.2695-0.96875 1.6328-1.9961 1.5742z"/>
  <path d="m324.78 190.88-16.328 23.348c3.0352-9.2148 8.7148-17.332 16.328-23.348z"/>
  <path d="m450.22 301.08c-2.2812-2.7695-4.9492-5.1953-7.9219-7.1992-0.54297-0.30078-1.2109-0.78516-1.1484-1.5117 0.60547-4.293-2.9648-4.4141-5.5039-5.5625-1.0273-0.48438-3.2656 0-2.7227-1.9336s2.2969-0.48438 3.3867 0c3.6289 1.3906 7.8008 2.2383 8.1055 7.3789 0 1.2695 1.3906 1.6953 2.1172 2.5391 0.72266 0.84375 3.4453 2.5977 3.6875 6.2891z"/>
  <path d="m268.53 234.43c-0.60547 5.082 0.48438 9.9805-0.54297 14.879-0.082031 3.1328 0.078125 6.2695 0.48047 9.375v2.9648c0.039062 0.23828-0.035156 0.48438-0.19922 0.66016-0.16406 0.17578-0.40234 0.26953-0.64453 0.24609-0.50781 0.042969-0.97266-0.28906-1.0898-0.78516-0.12109-0.98438-0.12109-1.9805 0-2.9648v-21.289c-0.17578-1.3789 0.66797-2.6836 1.9961-3.0859z"/>
  <path d="m315.71 387.57c-8.2266-0.32031-16.371-1.7852-24.191-4.3555 8.2812-0.30859 16.535 1.1797 24.191 4.3555z"/>
  <path d="m279.42 344.26c-0.48438 0-0.84766 0.42188-1.0898 0.36328-6.8555-2.5312-13.562-5.4609-20.078-8.7695-0.41797-0.25781-0.78516-0.58594-1.0898-0.96875-0.36328-0.60547-0.60547-1.2695 0-1.7539 0.375-0.35156 0.95703-0.35156 1.332 0 6.2266 4.0508 12.902 7.3594 19.898 9.8594 0.58203 0.15625 0.99609 0.66797 1.0273 1.2695z"/>
  <path d="m462.13 213.26c5.8867-1.7227 12.016-2.4805 18.145-2.2383 0.90625 0 1.8125 0.36328 1.875 1.2695 0.058594 0.90625-0.90625 1.1484-1.8125 1.2109l-16.453 1.0273c-0.78516 0.0625-1.2695-0.12109-1.7539-1.2695z"/>
  <path d="m321.45 206.06c2.7812-7.2656 6.8789-13.949 12.098-19.719 0.30859-0.38281 0.77344-0.60547 1.2695-0.60547 0.49219 0 0.95703 0.22266 1.2695 0.60547z"/>
  <path d="m446.23 368.21c0.63281-0.16406 1.3086-0.035157 1.8359 0.35156s0.85156 0.99219 0.88672 1.6445c0.82812 4.3945 0.55859 8.9219-0.78906 13.188 0 0.66406-0.60547 1.2109-1.3906 0.90625-0.39062-0.25391-0.70312-0.60938-0.90625-1.0273-0.12109-0.3125-0.12109-0.65625 0-0.96875 0.54297-4.6758 0.66406-9.3945 0.36328-14.094z"/>
  <path d="m302.77 391.62c6.543-0.035157 13.082 0.26562 19.594 0.91016 0.78516 0 1.7539 0 1.6328 1.332v-0.003906c-0.015626 0.23828-0.125 0.45703-0.30859 0.60547-0.1875 0.15234-0.42578 0.21484-0.66016 0.18359-6.582 0.039063-13.156-0.46484-19.656-1.5117 0 0-0.24219-0.72656-0.60156-1.5156z"/>
  <path d="m369.72 273.68 19.051-13.609c-0.90625 4.1758-11.371 12.098-19.051 13.609z"/>
  <path d="m254.32 266.66c0.90625 0 1.0898 1.0898 1.1484 1.9336 0.60547 4.8984 1.2109 9.7383 1.7539 14.637 0 0.84766 0 1.6953-0.84766 2.0547l0.003906 0.003907c-0.39844 0.13281-0.83594 0.070312-1.1797-0.16797-0.34766-0.23828-0.55859-0.625-0.57422-1.043-1-5.1445-1.5469-10.363-1.6328-15.605-0.10938-0.85937 0.47266-1.6602 1.3281-1.8125z"/>
  <path d="m353.99 361.14-2.418-0.30078v-0.003907c-0.6875-0.089843-1.1875-0.69531-1.1523-1.3906 0.023437-0.67969 0.53516-1.2422 1.2109-1.3281h0.90625c3.9336-0.066406 7.8398-0.65625 11.613-1.7539 0.37109-0.19922 0.8125-0.21875 1.1992-0.054687 0.39063 0.16406 0.68359 0.49609 0.79688 0.89844 0 0.96875-0.30078 1.5117-1.0898 1.875-3.6445 0.91016-7.3398 1.5977-11.066 2.0586z"/>
  <path d="m397.66 406.13c-1.3242 5.1367-3.9492 9.8438-7.6211 13.672-0.96875 1.2109-2.3594 0.90625-3.4492-0.78516 4.7188-3.5117 6.7773-9.0156 11.07-12.887z"/>
  <path d="m355.02 182.71c-5.2031 4.2344-8.7109 10.402-15.121 13.246 3.9258-5.5469 9.1055-10.086 15.121-13.246z"/>
  <path d="m322.12 322.67h4.9609c0.90625 0 1.6328 0.36328 1.6328 1.3906v0.003906c0.046874 0.68359-0.41797 1.3008-1.0898 1.4492-3.7695 0.57422-7.6016 0.57422-11.371 0-0.85156-0.125-1.4648-0.89453-1.3906-1.7539 0-1.0898 0.90625-1.332 1.7539-1.332h5.5039z"/>
  <path d="m343.89 184.59c-3.9297 6.5234-8.9414 12.332-14.816 17.176 3.7422-6.6562 8.7812-12.496 14.816-17.176z"/>
  <path d="m429.96 183.68c-5.9688 2.4609-12.52 3.1562-18.871 1.9961 6.2891-0.84766 12.34-3.8711 18.871-1.9961z"/>
  <path d="m438.3 392.34c-0.4375-0.54688-0.4375-1.3242 0-1.875 1.5977-3.6484 2.082-7.6875 1.3906-11.613 0-1.0273-0.42187-2.1758 0.96875-2.2969 1.3906-0.12109 1.332 0.78516 1.4531 1.6328h-0.003907c0.80469 3.7422 0.46875 7.6406-0.96875 11.191-0.54297 1.2695-1.0859 2.8398-2.8398 2.9609z"/>
  <path d="m361.07 362.53c4.1016-2.1211 8.4219-3.7852 12.883-4.9609 0.78516 0 1.6953 0 1.9336 0.84766h0.003907c0.15625 0.67969-0.23828 1.3672-0.90625 1.5742-4.2812 2.2109-9.125 3.0977-13.914 2.5391z"/>
  <path d="m453.79 372.45c-2.2383 0-2.4805-1.6953-2.5391-3.1445 0.09375-2.7812-0.27344-5.5625-1.0898-8.2266 0-0.66406 0-1.6953 0.84766-1.875 0.67188-0.10156 1.3242 0.27734 1.5742 0.91016 1.543 3.918 1.9609 8.1914 1.207 12.336z"/>
  <path d="m358.23 420.05c4.4727-2.7188 9.3203-4.7578 14.395-6.0508 0.72656 1.5117-0.36328 1.6328-1.0273 1.9336v0.003906c-2.8008 1.3164-5.4883 2.8555-8.0469 4.5938-1.9961 1.3945-2.0547 1.2734-5.3203-0.48047z"/>
  <path d="m325.93 402.5c-4.2734 0.78906-8.6719 0.43359-12.762-1.0273-0.72656 0-1.6328-0.66406-1.4531-1.6953 0.17969-1.0273 1.0898-0.96875 1.9336-0.72656l0.003906 0.003906c3.4492 1.2266 7.1016 1.8008 10.766 1.6914 0.35938-0.058594 1.2695 0.30469 1.5117 1.7539z"/>
  <path d="m309.23 200.56c-0.71484 5.7109-3.1133 11.078-6.8945 15.422 1.6992-5.3906 4.0117-10.562 6.8945-15.422z"/>
  <path d="m458.8 351.16c-0.84766-4.1133-4.1719-7.4375-4.2344-12.098h0.003907c4.2188 2.4258 6.0195 7.5742 4.2305 12.098z"/>
  <path d="m350.54 192.88c2.6406-5.4336 7.8086-9.1953 13.793-10.039z"/>
  <path d="m374.68 420.47c3.8711-2.6602 6.0469-7.3164 10.945-9.1328-2.3555 5.4453-7.3164 9.6172-10.945 9.1328z"/>
  <path d="m361.07 412.55v1.2695c-3.1719 2.3008-6.7109 4.0586-10.461 5.1992-0.63672 0.24219-1.3516-0.015625-1.6953-0.60156-0.42188-0.78516 0-1.332 0.84766-1.5117v-0.003906c3.6367-1.7734 7.4219-3.2305 11.309-4.3516z"/>
  <path d="m345.46 271.75c0 1.1484-0.42188 2.7812-0.84766 4.4141-0.066407 0.41797-0.3125 0.78125-0.67578 1.0039-0.35938 0.21875-0.79688 0.27344-1.1992 0.14453-0.80859-0.26172-1.2656-1.1172-1.0273-1.9336 0.20312-1.4727 0.50391-2.9258 0.90625-4.3555 0.36328-1.0898 0-3.1445 1.9336-2.7227 1.9375 0.42188 0.84766 1.875 0.91016 3.4492z"/>
  <path d="m343.23 414.06c-3.5703 0.48438-7.4375 2.4805-11.551-1.332 3.8867-0.9375 7.9805-0.46875 11.551 1.332z"/>
  <path d="m405.16 182.71c3.4453-2.2461 7.7969-2.5898 11.551-0.90625-3.668 1.4688-7.6992 1.7852-11.551 0.90625z"/>
  <path d="m258.67 329.81 12.098 5.3242c-3.3281 2.4805-5.0195-0.36328-7.0781-0.96875v-0.003906c-2.25-0.60547-4.1016-2.2109-5.0195-4.3516z"/>
  <path d="m406.01 178.66c-1.2109 0.83203-2.6445 1.2734-4.1133 1.2695-2.2969 0-4.5977 0-7.1367 0.42188 2.9062-3.0938 7.5586-3.793 11.25-1.6914z"/>
  <path d="m328.59 274.16c3.0859 2.3594 4.1133 5.5625 2.6602 7.9219-0.29297 0.61328-0.97266 0.9375-1.6328 0.78516-0.54297 0-1.0898-0.60547-0.90625-1.0273 1.2109-2.5391-0.90625-5.0195-0.12109-7.6797z"/>
  <path d="m473.02 217.73c3.5078-1.082 7.2344-1.25 10.828-0.48438-3.0273 2.2969-5.3242 2.418-10.828 0.48438z"/>
  <path d="m457.84 356.24c0.046875 0.55469-0.30859 1.0625-0.84766 1.207-0.60156 0.25781-1.2969-0.011718-1.5742-0.60156-0.48047-1.5859-0.84766-3.2031-1.0859-4.8398-0.13672-0.39844-0.074219-0.83594 0.16406-1.1797 0.23828-0.34766 0.625-0.55859 1.043-0.57422 0.88281-0.007812 1.6328 0.63672 1.7539 1.5117 0.54688 1.1484 0.54688 2.6602 0.54688 4.4766z"/>
  <path d="m321.03 407.59c2.4805 0 4.8984 0 7.3789-0.36328 0.60547 0 1.3906 0 1.5742 0.84766 0.17969 0.84766-0.78516 1.3906-1.5742 1.4531-2.4766 0.17969-5.1992 1.2695-7.3789-1.9375z"/>
  <path d="m316.07 316.8h6.5312c0.67578 0.085937 1.1875 0.64844 1.2109 1.3281 0 0.33594-0.13672 0.66016-0.375 0.89844-0.23438 0.23828-0.55859 0.37109-0.89453 0.37109-2.4922 0.58984-5.082-0.44922-6.4727-2.5977z"/>
  <path d="m336.27 276.22c0-0.66406-0.72656-2.2969 1.0898-2.2969 1.8125 0 2.0547 1.332 1.9961 2.7812 0.058593 0.64453 0.058593 1.293 0 1.9375-0.058594 0.40234-0.27734 0.76562-0.60938 1.0039-0.33203 0.23828-0.74219 0.33594-1.1445 0.26562-0.78516 0-0.96875-0.78516-1.0898-1.4531-0.12109-0.66406-0.24219-1.2695-0.24219-2.2383z"/>
  <path d="m315.89 312.81c-0.72656 0-1.1484 0-1.332-0.72656h0.003906c-0.058594-0.32031-0.058594-0.64844 0-0.96875l0.30078-0.36328c1.3906-0.96875 2.7227-1.9961 4.4766-0.96875 0 0 0.48437 0.66406 0.36328 0.84766-0.66406 1.8164-2.5391 1.6328-3.8125 2.1797z"/>
  <path d="m375.89 180.23c-2.1133 1.8438-4.6484 3.1289-7.3789 3.75 2.418-2.5391 4.6562-4.3555 7.3789-3.75z"/>
  <path d="m379.21 363.55c0.82031-1.3594 2.3555-2.1133 3.9336-1.9336-0.96875 1.1836-2.4023 1.8906-3.9336 1.9336z"/>
  <path d="m300.59 221.12c0 0.78516 0 1.5117-1.0273 1.5117s-1.0898-0.66406-0.96875-1.332c0.12109-0.66406 0.42188-1.3906 1.1484-1.4531 0.72656-0.058594 0.84766 0.91016 0.84766 1.2734z"/>
  <path d="m311.96 196.2c0 0.60547-0.42188 1.2109-1.1484 1.3906-0.074219-0.27734-0.074219-0.57031 0-0.84766 0-0.66406 0.36328-1.2695 1.1484-1.2695 0.78516 0 0.17969 0.36328 0 0.72656z"/>
  <use x="94.949219" y="650.722656" xlink:href="#u"/>
  <use x="117.140625" y="650.722656" xlink:href="#c"/>
  <use x="132.054688" y="650.722656" xlink:href="#b"/>
  <use x="152.566406" y="650.722656" xlink:href="#a"/>
  <use x="172.972656" y="650.722656" xlink:href="#d"/>
  <use x="187.429688" y="650.722656" xlink:href="#b"/>
  <use x="207.9375" y="650.722656" xlink:href="#l"/>
  <use x="240.113281" y="650.722656" xlink:href="#k"/>
  <use x="261.761719" y="650.722656" xlink:href="#f"/>
  <use x="292" y="650.722656" xlink:href="#j"/>
  <use x="322.09375" y="650.722656" xlink:href="#a"/>
  <use x="342.5" y="650.722656" xlink:href="#c"/>
  <use x="357.414062" y="650.722656" xlink:href="#t"/>
  <use x="367.78125" y="650.722656" xlink:href="#a"/>
  <use x="398.714844" y="650.722656" xlink:href="#s"/>
  <use x="420.644531" y="650.722656" xlink:href="#a"/>
  <use x="441.050781" y="650.722656" xlink:href="#i"/>
  <use x="472.5625" y="650.722656" xlink:href="#h"/>
  <use x="490.488281" y="650.722656" xlink:href="#g"/>
  <use x="512.015625" y="650.722656" xlink:href="#f"/>
  <use x="94.949219" y="680.964844" xlink:href="#r"/>
  <use x="108.105469" y="680.964844" xlink:href="#c"/>
  <use x="123.019531" y="680.964844" xlink:href="#e"/>
  <use x="143.792969" y="680.964844" xlink:href="#i"/>
  <use x="185.832031" y="680.964844" xlink:href="#d"/>
  <use x="200.289062" y="680.964844" xlink:href="#g"/>
  <use x="221.820312" y="680.964844" xlink:href="#b"/>
  <use x="252.855469" y="680.964844" xlink:href="#q"/>
  <use x="278.164062" y="680.964844" xlink:href="#e"/>
  <use x="298.941406" y="680.964844" xlink:href="#p"/>
  <use x="320.46875" y="680.964844" xlink:href="#o"/>
  <use x="352.527344" y="680.964844" xlink:href="#n"/>
  <use x="374.691406" y="680.964844" xlink:href="#c"/>
  <use x="389.605469" y="680.964844" xlink:href="#e"/>
  <use x="410.378906" y="680.964844" xlink:href="#m"/>
  <use x="420.746094" y="680.964844" xlink:href="#b"/>
  <use x="441.257812" y="680.964844" xlink:href="#h"/>
  <use x="459.183594" y="680.964844" xlink:href="#d"/>
 </g>
</svg>
